<svg viewBox="0 0 256 256" xmlns="http://www.w3.org/2000/svg">
<defs>
  <linearGradient id="base" x1="0" y1="0" x2="0.3" y2="1">
    <stop offset="0" stop-color="#0B1E44"/><stop offset="1" stop-color="#060F26"/>
  </linearGradient>
  <linearGradient id="screen" x1="0" y1="0" x2="0.4" y2="1">
    <stop offset="0" stop-color="#08142E"/><stop offset="1" stop-color="#040A1C"/>
  </linearGradient>
  <linearGradient id="edge" x1="0" y1="0" x2="1" y2="1">
    <stop offset="0" stop-color="#7DD3FC"/><stop offset="0.5" stop-color="#22D3EE"/><stop offset="1" stop-color="#38BDF8"/>
  </linearGradient>
  <linearGradient id="qrmod" x1="0" y1="0" x2="0" y2="1">
    <stop offset="0" stop-color="#E8FCFF"/><stop offset="0.45" stop-color="#67E8F9"/><stop offset="1" stop-color="#22D3EE"/>
  </linearGradient>
  <clipPath id="frameclip"><rect x="20" y="20" width="216" height="216" rx="46" ry="46"/></clipPath>
  <filter id="glow" x="-40%" y="-40%" width="180%" height="180%"><feGaussianBlur stdDeviation="3.5"/></filter>
  <filter id="softglow" x="-60%" y="-60%" width="220%" height="220%"><feGaussianBlur stdDeviation="7"/></filter>
  <filter id="qrglow" x="-30%" y="-30%" width="160%" height="160%"><feGaussianBlur stdDeviation="2.2"/></filter>
</defs>

  <!-- outer neon glow halo -->
  <rect x="20.00" y="20.00" width="216.00" height="216.00" rx="46.00" ry="46.00" fill="none" stroke="#22D3EE" stroke-width="10" opacity="0.5" filter="url(#softglow)"/>

  <!-- frame body -->
  <rect x="20.00" y="20.00" width="216.00" height="216.00" rx="46.00" ry="46.00" fill="url(#base)"/>

  <!-- hex force-field mesh -->
  <g clip-path="url(#frameclip)" stroke="#22D3EE" stroke-width="1.4" fill="none" opacity="0.30">
    <path d="M 4.0 -5.0 L 17.0 2.5 L 17.0 17.5 L 4.0 25.0 L -9.0 17.5 L -9.0 2.5 Z"/><path d="M 30.0 -5.0 L 43.0 2.5 L 43.0 17.5 L 30.0 25.0 L 17.0 17.5 L 17.0 2.5 Z"/><path d="M 56.0 -5.0 L 69.0 2.5 L 69.0 17.5 L 56.0 25.0 L 43.0 17.5 L 43.0 2.5 Z"/><path d="M 82.0 -5.0 L 95.0 2.5 L 95.0 17.5 L 82.0 25.0 L 69.0 17.5 L 69.0 2.5 Z"/><path d="M 108.0 -5.0 L 121.0 2.5 L 121.0 17.5 L 108.0 25.0 L 95.0 17.5 L 95.0 2.5 Z"/><path d="M 134.0 -5.0 L 147.0 2.5 L 147.0 17.5 L 134.0 25.0 L 121.0 17.5 L 121.0 2.5 Z"/><path d="M 160.0 -5.0 L 173.0 2.5 L 173.0 17.5 L 160.0 25.0 L 147.0 17.5 L 147.0 2.5 Z"/><path d="M 186.0 -5.0 L 199.0 2.5 L 199.0 17.5 L 186.0 25.0 L 173.0 17.5 L 173.0 2.5 Z"/><path d="M 212.0 -5.0 L 225.0 2.5 L 225.0 17.5 L 212.0 25.0 L 199.0 17.5 L 199.0 2.5 Z"/><path d="M 238.0 -5.0 L 251.0 2.5 L 251.0 17.5 L 238.0 25.0 L 225.0 17.5 L 225.0 2.5 Z"/><path d="M 17.0 17.5 L 30.0 25.0 L 30.0 40.0 L 17.0 47.5 L 4.0 40.0 L 4.0 25.0 Z"/><path d="M 43.0 17.5 L 56.0 25.0 L 56.0 40.0 L 43.0 47.5 L 30.0 40.0 L 30.0 25.0 Z"/><path d="M 69.0 17.5 L 82.0 25.0 L 82.0 40.0 L 69.0 47.5 L 56.0 40.0 L 56.0 25.0 Z"/><path d="M 95.0 17.5 L 108.0 25.0 L 108.0 40.0 L 95.0 47.5 L 82.0 40.0 L 82.0 25.0 Z"/><path d="M 121.0 17.5 L 134.0 25.0 L 134.0 40.0 L 121.0 47.5 L 108.0 40.0 L 108.0 25.0 Z"/><path d="M 147.0 17.5 L 160.0 25.0 L 160.0 40.0 L 147.0 47.5 L 134.0 40.0 L 134.0 25.0 Z"/><path d="M 173.0 17.5 L 186.0 25.0 L 186.0 40.0 L 173.0 47.5 L 160.0 40.0 L 160.0 25.0 Z"/><path d="M 199.0 17.5 L 212.0 25.0 L 212.0 40.0 L 199.0 47.5 L 186.0 40.0 L 186.0 25.0 Z"/><path d="M 225.0 17.5 L 238.0 25.0 L 238.0 40.0 L 225.0 47.5 L 212.0 40.0 L 212.0 25.0 Z"/><path d="M 251.0 17.5 L 264.0 25.0 L 264.0 40.0 L 251.0 47.5 L 238.0 40.0 L 238.0 25.0 Z"/><path d="M 4.0 40.0 L 17.0 47.5 L 17.0 62.5 L 4.0 70.0 L -9.0 62.5 L -9.0 47.5 Z"/><path d="M 30.0 40.0 L 43.0 47.5 L 43.0 62.5 L 30.0 70.0 L 17.0 62.5 L 17.0 47.5 Z"/><path d="M 56.0 40.0 L 69.0 47.5 L 69.0 62.5 L 56.0 70.0 L 43.0 62.5 L 43.0 47.5 Z"/><path d="M 82.0 40.0 L 95.0 47.5 L 95.0 62.5 L 82.0 70.0 L 69.0 62.5 L 69.0 47.5 Z"/><path d="M 108.0 40.0 L 121.0 47.5 L 121.0 62.5 L 108.0 70.0 L 95.0 62.5 L 95.0 47.5 Z"/><path d="M 134.0 40.0 L 147.0 47.5 L 147.0 62.5 L 134.0 70.0 L 121.0 62.5 L 121.0 47.5 Z"/><path d="M 160.0 40.0 L 173.0 47.5 L 173.0 62.5 L 160.0 70.0 L 147.0 62.5 L 147.0 47.5 Z"/><path d="M 186.0 40.0 L 199.0 47.5 L 199.0 62.5 L 186.0 70.0 L 173.0 62.5 L 173.0 47.5 Z"/><path d="M 212.0 40.0 L 225.0 47.5 L 225.0 62.5 L 212.0 70.0 L 199.0 62.5 L 199.0 47.5 Z"/><path d="M 238.0 40.0 L 251.0 47.5 L 251.0 62.5 L 238.0 70.0 L 225.0 62.5 L 225.0 47.5 Z"/><path d="M 17.0 62.5 L 30.0 70.0 L 30.0 85.0 L 17.0 92.5 L 4.0 85.0 L 4.0 70.0 Z"/><path d="M 43.0 62.5 L 56.0 70.0 L 56.0 85.0 L 43.0 92.5 L 30.0 85.0 L 30.0 70.0 Z"/><path d="M 69.0 62.5 L 82.0 70.0 L 82.0 85.0 L 69.0 92.5 L 56.0 85.0 L 56.0 70.0 Z"/><path d="M 95.0 62.5 L 108.0 70.0 L 108.0 85.0 L 95.0 92.5 L 82.0 85.0 L 82.0 70.0 Z"/><path d="M 121.0 62.5 L 134.0 70.0 L 134.0 85.0 L 121.0 92.5 L 108.0 85.0 L 108.0 70.0 Z"/><path d="M 147.0 62.5 L 160.0 70.0 L 160.0 85.0 L 147.0 92.5 L 134.0 85.0 L 134.0 70.0 Z"/><path d="M 173.0 62.5 L 186.0 70.0 L 186.0 85.0 L 173.0 92.5 L 160.0 85.0 L 160.0 70.0 Z"/><path d="M 199.0 62.5 L 212.0 70.0 L 212.0 85.0 L 199.0 92.5 L 186.0 85.0 L 186.0 70.0 Z"/><path d="M 225.0 62.5 L 238.0 70.0 L 238.0 85.0 L 225.0 92.5 L 212.0 85.0 L 212.0 70.0 Z"/><path d="M 251.0 62.5 L 264.0 70.0 L 264.0 85.0 L 251.0 92.5 L 238.0 85.0 L 238.0 70.0 Z"/><path d="M 4.0 85.0 L 17.0 92.5 L 17.0 107.5 L 4.0 115.0 L -9.0 107.5 L -9.0 92.5 Z"/><path d="M 30.0 85.0 L 43.0 92.5 L 43.0 107.5 L 30.0 115.0 L 17.0 107.5 L 17.0 92.5 Z"/><path d="M 56.0 85.0 L 69.0 92.5 L 69.0 107.5 L 56.0 115.0 L 43.0 107.5 L 43.0 92.5 Z"/><path d="M 82.0 85.0 L 95.0 92.5 L 95.0 107.5 L 82.0 115.0 L 69.0 107.5 L 69.0 92.5 Z"/><path d="M 108.0 85.0 L 121.0 92.5 L 121.0 107.5 L 108.0 115.0 L 95.0 107.5 L 95.0 92.5 Z"/><path d="M 134.0 85.0 L 147.0 92.5 L 147.0 107.5 L 134.0 115.0 L 121.0 107.5 L 121.0 92.5 Z"/><path d="M 160.0 85.0 L 173.0 92.5 L 173.0 107.5 L 160.0 115.0 L 147.0 107.5 L 147.0 92.5 Z"/><path d="M 186.0 85.0 L 199.0 92.5 L 199.0 107.5 L 186.0 115.0 L 173.0 107.5 L 173.0 92.5 Z"/><path d="M 212.0 85.0 L 225.0 92.5 L 225.0 107.5 L 212.0 115.0 L 199.0 107.5 L 199.0 92.5 Z"/><path d="M 238.0 85.0 L 251.0 92.5 L 251.0 107.5 L 238.0 115.0 L 225.0 107.5 L 225.0 92.5 Z"/><path d="M 17.0 107.5 L 30.0 115.0 L 30.0 130.0 L 17.0 137.5 L 4.0 130.0 L 4.0 115.0 Z"/><path d="M 43.0 107.5 L 56.0 115.0 L 56.0 130.0 L 43.0 137.5 L 30.0 130.0 L 30.0 115.0 Z"/><path d="M 69.0 107.5 L 82.0 115.0 L 82.0 130.0 L 69.0 137.5 L 56.0 130.0 L 56.0 115.0 Z"/><path d="M 95.0 107.5 L 108.0 115.0 L 108.0 130.0 L 95.0 137.5 L 82.0 130.0 L 82.0 115.0 Z"/><path d="M 121.0 107.5 L 134.0 115.0 L 134.0 130.0 L 121.0 137.5 L 108.0 130.0 L 108.0 115.0 Z"/><path d="M 147.0 107.5 L 160.0 115.0 L 160.0 130.0 L 147.0 137.5 L 134.0 130.0 L 134.0 115.0 Z"/><path d="M 173.0 107.5 L 186.0 115.0 L 186.0 130.0 L 173.0 137.5 L 160.0 130.0 L 160.0 115.0 Z"/><path d="M 199.0 107.5 L 212.0 115.0 L 212.0 130.0 L 199.0 137.5 L 186.0 130.0 L 186.0 115.0 Z"/><path d="M 225.0 107.5 L 238.0 115.0 L 238.0 130.0 L 225.0 137.5 L 212.0 130.0 L 212.0 115.0 Z"/><path d="M 251.0 107.5 L 264.0 115.0 L 264.0 130.0 L 251.0 137.5 L 238.0 130.0 L 238.0 115.0 Z"/><path d="M 4.0 130.0 L 17.0 137.5 L 17.0 152.5 L 4.0 160.0 L -9.0 152.5 L -9.0 137.5 Z"/><path d="M 30.0 130.0 L 43.0 137.5 L 43.0 152.5 L 30.0 160.0 L 17.0 152.5 L 17.0 137.5 Z"/><path d="M 56.0 130.0 L 69.0 137.5 L 69.0 152.5 L 56.0 160.0 L 43.0 152.5 L 43.0 137.5 Z"/><path d="M 82.0 130.0 L 95.0 137.5 L 95.0 152.5 L 82.0 160.0 L 69.0 152.5 L 69.0 137.5 Z"/><path d="M 108.0 130.0 L 121.0 137.5 L 121.0 152.5 L 108.0 160.0 L 95.0 152.5 L 95.0 137.5 Z"/><path d="M 134.0 130.0 L 147.0 137.5 L 147.0 152.5 L 134.0 160.0 L 121.0 152.5 L 121.0 137.5 Z"/><path d="M 160.0 130.0 L 173.0 137.5 L 173.0 152.5 L 160.0 160.0 L 147.0 152.5 L 147.0 137.5 Z"/><path d="M 186.0 130.0 L 199.0 137.5 L 199.0 152.5 L 186.0 160.0 L 173.0 152.5 L 173.0 137.5 Z"/><path d="M 212.0 130.0 L 225.0 137.5 L 225.0 152.5 L 212.0 160.0 L 199.0 152.5 L 199.0 137.5 Z"/><path d="M 238.0 130.0 L 251.0 137.5 L 251.0 152.5 L 238.0 160.0 L 225.0 152.5 L 225.0 137.5 Z"/><path d="M 17.0 152.5 L 30.0 160.0 L 30.0 175.0 L 17.0 182.5 L 4.0 175.0 L 4.0 160.0 Z"/><path d="M 43.0 152.5 L 56.0 160.0 L 56.0 175.0 L 43.0 182.5 L 30.0 175.0 L 30.0 160.0 Z"/><path d="M 69.0 152.5 L 82.0 160.0 L 82.0 175.0 L 69.0 182.5 L 56.0 175.0 L 56.0 160.0 Z"/><path d="M 95.0 152.5 L 108.0 160.0 L 108.0 175.0 L 95.0 182.5 L 82.0 175.0 L 82.0 160.0 Z"/><path d="M 121.0 152.5 L 134.0 160.0 L 134.0 175.0 L 121.0 182.5 L 108.0 175.0 L 108.0 160.0 Z"/><path d="M 147.0 152.5 L 160.0 160.0 L 160.0 175.0 L 147.0 182.5 L 134.0 175.0 L 134.0 160.0 Z"/><path d="M 173.0 152.5 L 186.0 160.0 L 186.0 175.0 L 173.0 182.5 L 160.0 175.0 L 160.0 160.0 Z"/><path d="M 199.0 152.5 L 212.0 160.0 L 212.0 175.0 L 199.0 182.5 L 186.0 175.0 L 186.0 160.0 Z"/><path d="M 225.0 152.5 L 238.0 160.0 L 238.0 175.0 L 225.0 182.5 L 212.0 175.0 L 212.0 160.0 Z"/><path d="M 251.0 152.5 L 264.0 160.0 L 264.0 175.0 L 251.0 182.5 L 238.0 175.0 L 238.0 160.0 Z"/><path d="M 4.0 175.0 L 17.0 182.5 L 17.0 197.5 L 4.0 205.0 L -9.0 197.5 L -9.0 182.5 Z"/><path d="M 30.0 175.0 L 43.0 182.5 L 43.0 197.5 L 30.0 205.0 L 17.0 197.5 L 17.0 182.5 Z"/><path d="M 56.0 175.0 L 69.0 182.5 L 69.0 197.5 L 56.0 205.0 L 43.0 197.5 L 43.0 182.5 Z"/><path d="M 82.0 175.0 L 95.0 182.5 L 95.0 197.5 L 82.0 205.0 L 69.0 197.5 L 69.0 182.5 Z"/><path d="M 108.0 175.0 L 121.0 182.5 L 121.0 197.5 L 108.0 205.0 L 95.0 197.5 L 95.0 182.5 Z"/><path d="M 134.0 175.0 L 147.0 182.5 L 147.0 197.5 L 134.0 205.0 L 121.0 197.5 L 121.0 182.5 Z"/><path d="M 160.0 175.0 L 173.0 182.5 L 173.0 197.5 L 160.0 205.0 L 147.0 197.5 L 147.0 182.5 Z"/><path d="M 186.0 175.0 L 199.0 182.5 L 199.0 197.5 L 186.0 205.0 L 173.0 197.5 L 173.0 182.5 Z"/><path d="M 212.0 175.0 L 225.0 182.5 L 225.0 197.5 L 212.0 205.0 L 199.0 197.5 L 199.0 182.5 Z"/><path d="M 238.0 175.0 L 251.0 182.5 L 251.0 197.5 L 238.0 205.0 L 225.0 197.5 L 225.0 182.5 Z"/><path d="M 17.0 197.5 L 30.0 205.0 L 30.0 220.0 L 17.0 227.5 L 4.0 220.0 L 4.0 205.0 Z"/><path d="M 43.0 197.5 L 56.0 205.0 L 56.0 220.0 L 43.0 227.5 L 30.0 220.0 L 30.0 205.0 Z"/><path d="M 69.0 197.5 L 82.0 205.0 L 82.0 220.0 L 69.0 227.5 L 56.0 220.0 L 56.0 205.0 Z"/><path d="M 95.0 197.5 L 108.0 205.0 L 108.0 220.0 L 95.0 227.5 L 82.0 220.0 L 82.0 205.0 Z"/><path d="M 121.0 197.5 L 134.0 205.0 L 134.0 220.0 L 121.0 227.5 L 108.0 220.0 L 108.0 205.0 Z"/><path d="M 147.0 197.5 L 160.0 205.0 L 160.0 220.0 L 147.0 227.5 L 134.0 220.0 L 134.0 205.0 Z"/><path d="M 173.0 197.5 L 186.0 205.0 L 186.0 220.0 L 173.0 227.5 L 160.0 220.0 L 160.0 205.0 Z"/><path d="M 199.0 197.5 L 212.0 205.0 L 212.0 220.0 L 199.0 227.5 L 186.0 220.0 L 186.0 205.0 Z"/><path d="M 225.0 197.5 L 238.0 205.0 L 238.0 220.0 L 225.0 227.5 L 212.0 220.0 L 212.0 205.0 Z"/><path d="M 251.0 197.5 L 264.0 205.0 L 264.0 220.0 L 251.0 227.5 L 238.0 220.0 L 238.0 205.0 Z"/><path d="M 4.0 220.0 L 17.0 227.5 L 17.0 242.5 L 4.0 250.0 L -9.0 242.5 L -9.0 227.5 Z"/><path d="M 30.0 220.0 L 43.0 227.5 L 43.0 242.5 L 30.0 250.0 L 17.0 242.5 L 17.0 227.5 Z"/><path d="M 56.0 220.0 L 69.0 227.5 L 69.0 242.5 L 56.0 250.0 L 43.0 242.5 L 43.0 227.5 Z"/><path d="M 82.0 220.0 L 95.0 227.5 L 95.0 242.5 L 82.0 250.0 L 69.0 242.5 L 69.0 227.5 Z"/><path d="M 108.0 220.0 L 121.0 227.5 L 121.0 242.5 L 108.0 250.0 L 95.0 242.5 L 95.0 227.5 Z"/><path d="M 134.0 220.0 L 147.0 227.5 L 147.0 242.5 L 134.0 250.0 L 121.0 242.5 L 121.0 227.5 Z"/><path d="M 160.0 220.0 L 173.0 227.5 L 173.0 242.5 L 160.0 250.0 L 147.0 242.5 L 147.0 227.5 Z"/><path d="M 186.0 220.0 L 199.0 227.5 L 199.0 242.5 L 186.0 250.0 L 173.0 242.5 L 173.0 227.5 Z"/><path d="M 212.0 220.0 L 225.0 227.5 L 225.0 242.5 L 212.0 250.0 L 199.0 242.5 L 199.0 227.5 Z"/><path d="M 238.0 220.0 L 251.0 227.5 L 251.0 242.5 L 238.0 250.0 L 225.0 242.5 L 225.0 227.5 Z"/>
  </g>

  <!-- ambient scan highlights in the frame -->
  <g clip-path="url(#frameclip)">
    <rect x="20" y="40" width="216" height="1.5" fill="#67E8F9" opacity="0.22"/>
    <rect x="20" y="214" width="216" height="1.5" fill="#67E8F9" opacity="0.22"/>
  </g>

  <!-- glowing frame edge (blurred under + crisp over) -->
  <rect x="20.00" y="20.00" width="216.00" height="216.00" rx="46.00" ry="46.00" fill="none" stroke="url(#edge)" stroke-width="9" filter="url(#glow)"/>
  <rect x="20.00" y="20.00" width="216.00" height="216.00" rx="46.00" ry="46.00" fill="none" stroke="url(#edge)" stroke-width="5"/>
  <rect x="30.00" y="30.00" width="196.00" height="196.00" rx="38.00" ry="38.00" fill="none" stroke="#38BDF8" stroke-width="1.4" opacity="0.55"/>

  <!-- QR screen panel -->
  <rect x="54.00" y="54.00" width="148.00" height="148.00" rx="20.00" ry="20.00" fill="url(#screen)"/>
  <rect x="54.00" y="54.00" width="148.00" height="148.00" rx="20.00" ry="20.00" fill="none" stroke="#22D3EE" stroke-width="1.6" opacity="0.7"/>

  <!-- scan line across the screen -->
  <g clip-path="url(#frameclip)">
    <rect x="56" y="128" width="144" height="3" fill="#A5F3FC" opacity="0.55"/>
    <rect x="56" y="126.5" width="144" height="6" fill="#67E8F9" opacity="0.18" filter="url(#glow)"/>
  </g>

  <!-- QR: soft glow layer, then crisp modules -->
  <g fill="#22D3EE" opacity="0.9" filter="url(#qrglow)"><rect x="119.67" y="66.53" width="4.84" height="4.84" rx="1.55" ry="1.55"/><rect x="125.58" y="66.53" width="4.84" height="4.84" rx="1.55" ry="1.55"/><rect x="131.48" y="72.44" width="4.84" height="4.84" rx="1.55" ry="1.55"/><rect x="119.67" y="78.34" width="4.84" height="4.84" rx="1.55" ry="1.55"/><rect x="125.58" y="78.34" width="4.84" height="4.84" rx="1.55" ry="1.55"/><rect x="131.48" y="84.25" width="4.84" height="4.84" rx="1.55" ry="1.55"/><rect x="137.39" y="84.25" width="4.84" height="4.84" rx="1.55" ry="1.55"/><rect x="113.77" y="90.15" width="4.84" height="4.84" rx="1.55" ry="1.55"/><rect x="119.67" y="90.15" width="4.84" height="4.84" rx="1.55" ry="1.55"/><rect x="137.39" y="90.15" width="4.84" height="4.84" rx="1.55" ry="1.55"/><rect x="131.48" y="96.06" width="4.84" height="4.84" rx="1.55" ry="1.55"/><rect x="137.39" y="96.06" width="4.84" height="4.84" rx="1.55" ry="1.55"/><rect x="113.77" y="101.96" width="4.84" height="4.84" rx="1.55" ry="1.55"/><rect x="125.58" y="101.96" width="4.84" height="4.84" rx="1.55" ry="1.55"/><rect x="137.39" y="101.96" width="4.84" height="4.84" rx="1.55" ry="1.55"/><rect x="113.77" y="107.86" width="4.84" height="4.84" rx="1.55" ry="1.55"/><rect x="131.48" y="107.86" width="4.84" height="4.84" rx="1.55" ry="1.55"/><rect x="78.34" y="113.77" width="4.84" height="4.84" rx="1.55" ry="1.55"/><rect x="84.25" y="113.77" width="4.84" height="4.84" rx="1.55" ry="1.55"/><rect x="101.96" y="113.77" width="4.84" height="4.84" rx="1.55" ry="1.55"/><rect x="107.86" y="113.77" width="4.84" height="4.84" rx="1.55" ry="1.55"/><rect x="113.77" y="113.77" width="4.84" height="4.84" rx="1.55" ry="1.55"/><rect x="125.58" y="113.77" width="4.84" height="4.84" rx="1.55" ry="1.55"/><rect x="131.48" y="113.77" width="4.84" height="4.84" rx="1.55" ry="1.55"/><rect x="137.39" y="113.77" width="4.84" height="4.84" rx="1.55" ry="1.55"/><rect x="143.29" y="113.77" width="4.84" height="4.84" rx="1.55" ry="1.55"/><rect x="149.20" y="113.77" width="4.84" height="4.84" rx="1.55" ry="1.55"/><rect x="161.01" y="113.77" width="4.84" height="4.84" rx="1.55" ry="1.55"/><rect x="72.44" y="119.67" width="4.84" height="4.84" rx="1.55" ry="1.55"/><rect x="84.25" y="119.67" width="4.84" height="4.84" rx="1.55" ry="1.55"/><rect x="107.86" y="119.67" width="4.84" height="4.84" rx="1.55" ry="1.55"/><rect x="119.67" y="119.67" width="4.84" height="4.84" rx="1.55" ry="1.55"/><rect x="125.58" y="119.67" width="4.84" height="4.84" rx="1.55" ry="1.55"/><rect x="143.29" y="119.67" width="4.84" height="4.84" rx="1.55" ry="1.55"/><rect x="149.20" y="119.67" width="4.84" height="4.84" rx="1.55" ry="1.55"/><rect x="155.10" y="119.67" width="4.84" height="4.84" rx="1.55" ry="1.55"/><rect x="166.91" y="119.67" width="4.84" height="4.84" rx="1.55" ry="1.55"/><rect x="172.82" y="119.67" width="4.84" height="4.84" rx="1.55" ry="1.55"/><rect x="178.72" y="119.67" width="4.84" height="4.84" rx="1.55" ry="1.55"/><rect x="72.44" y="125.58" width="4.84" height="4.84" rx="1.55" ry="1.55"/><rect x="78.34" y="125.58" width="4.84" height="4.84" rx="1.55" ry="1.55"/><rect x="84.25" y="125.58" width="4.84" height="4.84" rx="1.55" ry="1.55"/><rect x="90.15" y="125.58" width="4.84" height="4.84" rx="1.55" ry="1.55"/><rect x="101.96" y="125.58" width="4.84" height="4.84" rx="1.55" ry="1.55"/><rect x="119.67" y="125.58" width="4.84" height="4.84" rx="1.55" ry="1.55"/><rect x="131.48" y="125.58" width="4.84" height="4.84" rx="1.55" ry="1.55"/><rect x="143.29" y="125.58" width="4.84" height="4.84" rx="1.55" ry="1.55"/><rect x="149.20" y="125.58" width="4.84" height="4.84" rx="1.55" ry="1.55"/><rect x="155.10" y="125.58" width="4.84" height="4.84" rx="1.55" ry="1.55"/><rect x="161.01" y="125.58" width="4.84" height="4.84" rx="1.55" ry="1.55"/><rect x="178.72" y="125.58" width="4.84" height="4.84" rx="1.55" ry="1.55"/><rect x="66.53" y="131.48" width="4.84" height="4.84" rx="1.55" ry="1.55"/><rect x="78.34" y="131.48" width="4.84" height="4.84" rx="1.55" ry="1.55"/><rect x="90.15" y="131.48" width="4.84" height="4.84" rx="1.55" ry="1.55"/><rect x="96.06" y="131.48" width="4.84" height="4.84" rx="1.55" ry="1.55"/><rect x="119.67" y="131.48" width="4.84" height="4.84" rx="1.55" ry="1.55"/><rect x="172.82" y="131.48" width="4.84" height="4.84" rx="1.55" ry="1.55"/><rect x="178.72" y="131.48" width="4.84" height="4.84" rx="1.55" ry="1.55"/><rect x="184.63" y="131.48" width="4.84" height="4.84" rx="1.55" ry="1.55"/><rect x="84.25" y="137.39" width="4.84" height="4.84" rx="1.55" ry="1.55"/><rect x="90.15" y="137.39" width="4.84" height="4.84" rx="1.55" ry="1.55"/><rect x="101.96" y="137.39" width="4.84" height="4.84" rx="1.55" ry="1.55"/><rect x="107.86" y="137.39" width="4.84" height="4.84" rx="1.55" ry="1.55"/><rect x="113.77" y="137.39" width="4.84" height="4.84" rx="1.55" ry="1.55"/><rect x="119.67" y="137.39" width="4.84" height="4.84" rx="1.55" ry="1.55"/><rect x="131.48" y="137.39" width="4.84" height="4.84" rx="1.55" ry="1.55"/><rect x="143.29" y="137.39" width="4.84" height="4.84" rx="1.55" ry="1.55"/><rect x="161.01" y="137.39" width="4.84" height="4.84" rx="1.55" ry="1.55"/><rect x="166.91" y="137.39" width="4.84" height="4.84" rx="1.55" ry="1.55"/><rect x="184.63" y="137.39" width="4.84" height="4.84" rx="1.55" ry="1.55"/><rect x="113.77" y="143.29" width="4.84" height="4.84" rx="1.55" ry="1.55"/><rect x="119.67" y="143.29" width="4.84" height="4.84" rx="1.55" ry="1.55"/><rect x="125.58" y="143.29" width="4.84" height="4.84" rx="1.55" ry="1.55"/><rect x="131.48" y="143.29" width="4.84" height="4.84" rx="1.55" ry="1.55"/><rect x="137.39" y="143.29" width="4.84" height="4.84" rx="1.55" ry="1.55"/><rect x="149.20" y="143.29" width="4.84" height="4.84" rx="1.55" ry="1.55"/><rect x="155.10" y="143.29" width="4.84" height="4.84" rx="1.55" ry="1.55"/><rect x="172.82" y="143.29" width="4.84" height="4.84" rx="1.55" ry="1.55"/><rect x="184.63" y="143.29" width="4.84" height="4.84" rx="1.55" ry="1.55"/><rect x="113.77" y="149.20" width="4.84" height="4.84" rx="1.55" ry="1.55"/><rect x="119.67" y="149.20" width="4.84" height="4.84" rx="1.55" ry="1.55"/><rect x="125.58" y="149.20" width="4.84" height="4.84" rx="1.55" ry="1.55"/><rect x="131.48" y="149.20" width="4.84" height="4.84" rx="1.55" ry="1.55"/><rect x="143.29" y="149.20" width="4.84" height="4.84" rx="1.55" ry="1.55"/><rect x="161.01" y="149.20" width="4.84" height="4.84" rx="1.55" ry="1.55"/><rect x="184.63" y="149.20" width="4.84" height="4.84" rx="1.55" ry="1.55"/><rect x="131.48" y="155.10" width="4.84" height="4.84" rx="1.55" ry="1.55"/><rect x="137.39" y="155.10" width="4.84" height="4.84" rx="1.55" ry="1.55"/><rect x="149.20" y="155.10" width="4.84" height="4.84" rx="1.55" ry="1.55"/><rect x="184.63" y="155.10" width="4.84" height="4.84" rx="1.55" ry="1.55"/><rect x="119.67" y="161.01" width="4.84" height="4.84" rx="1.55" ry="1.55"/><rect x="131.48" y="161.01" width="4.84" height="4.84" rx="1.55" ry="1.55"/><rect x="137.39" y="161.01" width="4.84" height="4.84" rx="1.55" ry="1.55"/><rect x="143.29" y="161.01" width="4.84" height="4.84" rx="1.55" ry="1.55"/><rect x="172.82" y="161.01" width="4.84" height="4.84" rx="1.55" ry="1.55"/><rect x="184.63" y="161.01" width="4.84" height="4.84" rx="1.55" ry="1.55"/><rect x="113.77" y="166.91" width="4.84" height="4.84" rx="1.55" ry="1.55"/><rect x="119.67" y="166.91" width="4.84" height="4.84" rx="1.55" ry="1.55"/><rect x="131.48" y="166.91" width="4.84" height="4.84" rx="1.55" ry="1.55"/><rect x="149.20" y="166.91" width="4.84" height="4.84" rx="1.55" ry="1.55"/><rect x="161.01" y="166.91" width="4.84" height="4.84" rx="1.55" ry="1.55"/><rect x="172.82" y="166.91" width="4.84" height="4.84" rx="1.55" ry="1.55"/><rect x="178.72" y="166.91" width="4.84" height="4.84" rx="1.55" ry="1.55"/><rect x="113.77" y="172.82" width="4.84" height="4.84" rx="1.55" ry="1.55"/><rect x="125.58" y="172.82" width="4.84" height="4.84" rx="1.55" ry="1.55"/><rect x="131.48" y="172.82" width="4.84" height="4.84" rx="1.55" ry="1.55"/><rect x="137.39" y="172.82" width="4.84" height="4.84" rx="1.55" ry="1.55"/><rect x="143.29" y="172.82" width="4.84" height="4.84" rx="1.55" ry="1.55"/><rect x="149.20" y="172.82" width="4.84" height="4.84" rx="1.55" ry="1.55"/><rect x="161.01" y="172.82" width="4.84" height="4.84" rx="1.55" ry="1.55"/><rect x="172.82" y="172.82" width="4.84" height="4.84" rx="1.55" ry="1.55"/><rect x="125.58" y="178.72" width="4.84" height="4.84" rx="1.55" ry="1.55"/><rect x="149.20" y="178.72" width="4.84" height="4.84" rx="1.55" ry="1.55"/><rect x="161.01" y="178.72" width="4.84" height="4.84" rx="1.55" ry="1.55"/><rect x="166.91" y="178.72" width="4.84" height="4.84" rx="1.55" ry="1.55"/><rect x="119.67" y="184.63" width="4.84" height="4.84" rx="1.55" ry="1.55"/><rect x="125.58" y="184.63" width="4.84" height="4.84" rx="1.55" ry="1.55"/><rect x="143.29" y="184.63" width="4.84" height="4.84" rx="1.55" ry="1.55"/><rect x="149.20" y="184.63" width="4.84" height="4.84" rx="1.55" ry="1.55"/><rect x="155.10" y="184.63" width="4.84" height="4.84" rx="1.55" ry="1.55"/><rect x="178.72" y="184.63" width="4.84" height="4.84" rx="1.55" ry="1.55"/><rect x="68.95" y="68.95" width="35.43" height="35.43" rx="9.45" ry="9.45" fill="none" stroke="url(#qrmod)" stroke-width="5.90"/><rect x="77.81" y="77.81" width="17.71" height="17.71" rx="5.90" ry="5.90" fill="url(#qrmod)"/><rect x="151.62" y="68.95" width="35.43" height="35.43" rx="9.45" ry="9.45" fill="none" stroke="url(#qrmod)" stroke-width="5.90"/><rect x="160.48" y="77.81" width="17.71" height="17.71" rx="5.90" ry="5.90" fill="url(#qrmod)"/><rect x="68.95" y="151.62" width="35.43" height="35.43" rx="9.45" ry="9.45" fill="none" stroke="url(#qrmod)" stroke-width="5.90"/><rect x="77.81" y="160.48" width="17.71" height="17.71" rx="5.90" ry="5.90" fill="url(#qrmod)"/></g>
  <g fill="url(#qrmod)"><rect x="119.67" y="66.53" width="4.84" height="4.84" rx="1.55" ry="1.55"/><rect x="125.58" y="66.53" width="4.84" height="4.84" rx="1.55" ry="1.55"/><rect x="131.48" y="72.44" width="4.84" height="4.84" rx="1.55" ry="1.55"/><rect x="119.67" y="78.34" width="4.84" height="4.84" rx="1.55" ry="1.55"/><rect x="125.58" y="78.34" width="4.84" height="4.84" rx="1.55" ry="1.55"/><rect x="131.48" y="84.25" width="4.84" height="4.84" rx="1.55" ry="1.55"/><rect x="137.39" y="84.25" width="4.84" height="4.84" rx="1.55" ry="1.55"/><rect x="113.77" y="90.15" width="4.84" height="4.84" rx="1.55" ry="1.55"/><rect x="119.67" y="90.15" width="4.84" height="4.84" rx="1.55" ry="1.55"/><rect x="137.39" y="90.15" width="4.84" height="4.84" rx="1.55" ry="1.55"/><rect x="131.48" y="96.06" width="4.84" height="4.84" rx="1.55" ry="1.55"/><rect x="137.39" y="96.06" width="4.84" height="4.84" rx="1.55" ry="1.55"/><rect x="113.77" y="101.96" width="4.84" height="4.84" rx="1.55" ry="1.55"/><rect x="125.58" y="101.96" width="4.84" height="4.84" rx="1.55" ry="1.55"/><rect x="137.39" y="101.96" width="4.84" height="4.84" rx="1.55" ry="1.55"/><rect x="113.77" y="107.86" width="4.84" height="4.84" rx="1.55" ry="1.55"/><rect x="131.48" y="107.86" width="4.84" height="4.84" rx="1.55" ry="1.55"/><rect x="78.34" y="113.77" width="4.84" height="4.84" rx="1.55" ry="1.55"/><rect x="84.25" y="113.77" width="4.84" height="4.84" rx="1.55" ry="1.55"/><rect x="101.96" y="113.77" width="4.84" height="4.84" rx="1.55" ry="1.55"/><rect x="107.86" y="113.77" width="4.84" height="4.84" rx="1.55" ry="1.55"/><rect x="113.77" y="113.77" width="4.84" height="4.84" rx="1.55" ry="1.55"/><rect x="125.58" y="113.77" width="4.84" height="4.84" rx="1.55" ry="1.55"/><rect x="131.48" y="113.77" width="4.84" height="4.84" rx="1.55" ry="1.55"/><rect x="137.39" y="113.77" width="4.84" height="4.84" rx="1.55" ry="1.55"/><rect x="143.29" y="113.77" width="4.84" height="4.84" rx="1.55" ry="1.55"/><rect x="149.20" y="113.77" width="4.84" height="4.84" rx="1.55" ry="1.55"/><rect x="161.01" y="113.77" width="4.84" height="4.84" rx="1.55" ry="1.55"/><rect x="72.44" y="119.67" width="4.84" height="4.84" rx="1.55" ry="1.55"/><rect x="84.25" y="119.67" width="4.84" height="4.84" rx="1.55" ry="1.55"/><rect x="107.86" y="119.67" width="4.84" height="4.84" rx="1.55" ry="1.55"/><rect x="119.67" y="119.67" width="4.84" height="4.84" rx="1.55" ry="1.55"/><rect x="125.58" y="119.67" width="4.84" height="4.84" rx="1.55" ry="1.55"/><rect x="143.29" y="119.67" width="4.84" height="4.84" rx="1.55" ry="1.55"/><rect x="149.20" y="119.67" width="4.84" height="4.84" rx="1.55" ry="1.55"/><rect x="155.10" y="119.67" width="4.84" height="4.84" rx="1.55" ry="1.55"/><rect x="166.91" y="119.67" width="4.84" height="4.84" rx="1.55" ry="1.55"/><rect x="172.82" y="119.67" width="4.84" height="4.84" rx="1.55" ry="1.55"/><rect x="178.72" y="119.67" width="4.84" height="4.84" rx="1.55" ry="1.55"/><rect x="72.44" y="125.58" width="4.84" height="4.84" rx="1.55" ry="1.55"/><rect x="78.34" y="125.58" width="4.84" height="4.84" rx="1.55" ry="1.55"/><rect x="84.25" y="125.58" width="4.84" height="4.84" rx="1.55" ry="1.55"/><rect x="90.15" y="125.58" width="4.84" height="4.84" rx="1.55" ry="1.55"/><rect x="101.96" y="125.58" width="4.84" height="4.84" rx="1.55" ry="1.55"/><rect x="119.67" y="125.58" width="4.84" height="4.84" rx="1.55" ry="1.55"/><rect x="131.48" y="125.58" width="4.84" height="4.84" rx="1.55" ry="1.55"/><rect x="143.29" y="125.58" width="4.84" height="4.84" rx="1.55" ry="1.55"/><rect x="149.20" y="125.58" width="4.84" height="4.84" rx="1.55" ry="1.55"/><rect x="155.10" y="125.58" width="4.84" height="4.84" rx="1.55" ry="1.55"/><rect x="161.01" y="125.58" width="4.84" height="4.84" rx="1.55" ry="1.55"/><rect x="178.72" y="125.58" width="4.84" height="4.84" rx="1.55" ry="1.55"/><rect x="66.53" y="131.48" width="4.84" height="4.84" rx="1.55" ry="1.55"/><rect x="78.34" y="131.48" width="4.84" height="4.84" rx="1.55" ry="1.55"/><rect x="90.15" y="131.48" width="4.84" height="4.84" rx="1.55" ry="1.55"/><rect x="96.06" y="131.48" width="4.84" height="4.84" rx="1.55" ry="1.55"/><rect x="119.67" y="131.48" width="4.84" height="4.84" rx="1.55" ry="1.55"/><rect x="172.82" y="131.48" width="4.84" height="4.84" rx="1.55" ry="1.55"/><rect x="178.72" y="131.48" width="4.84" height="4.84" rx="1.55" ry="1.55"/><rect x="184.63" y="131.48" width="4.84" height="4.84" rx="1.55" ry="1.55"/><rect x="84.25" y="137.39" width="4.84" height="4.84" rx="1.55" ry="1.55"/><rect x="90.15" y="137.39" width="4.84" height="4.84" rx="1.55" ry="1.55"/><rect x="101.96" y="137.39" width="4.84" height="4.84" rx="1.55" ry="1.55"/><rect x="107.86" y="137.39" width="4.84" height="4.84" rx="1.55" ry="1.55"/><rect x="113.77" y="137.39" width="4.84" height="4.84" rx="1.55" ry="1.55"/><rect x="119.67" y="137.39" width="4.84" height="4.84" rx="1.55" ry="1.55"/><rect x="131.48" y="137.39" width="4.84" height="4.84" rx="1.55" ry="1.55"/><rect x="143.29" y="137.39" width="4.84" height="4.84" rx="1.55" ry="1.55"/><rect x="161.01" y="137.39" width="4.84" height="4.84" rx="1.55" ry="1.55"/><rect x="166.91" y="137.39" width="4.84" height="4.84" rx="1.55" ry="1.55"/><rect x="184.63" y="137.39" width="4.84" height="4.84" rx="1.55" ry="1.55"/><rect x="113.77" y="143.29" width="4.84" height="4.84" rx="1.55" ry="1.55"/><rect x="119.67" y="143.29" width="4.84" height="4.84" rx="1.55" ry="1.55"/><rect x="125.58" y="143.29" width="4.84" height="4.84" rx="1.55" ry="1.55"/><rect x="131.48" y="143.29" width="4.84" height="4.84" rx="1.55" ry="1.55"/><rect x="137.39" y="143.29" width="4.84" height="4.84" rx="1.55" ry="1.55"/><rect x="149.20" y="143.29" width="4.84" height="4.84" rx="1.55" ry="1.55"/><rect x="155.10" y="143.29" width="4.84" height="4.84" rx="1.55" ry="1.55"/><rect x="172.82" y="143.29" width="4.84" height="4.84" rx="1.55" ry="1.55"/><rect x="184.63" y="143.29" width="4.84" height="4.84" rx="1.55" ry="1.55"/><rect x="113.77" y="149.20" width="4.84" height="4.84" rx="1.55" ry="1.55"/><rect x="119.67" y="149.20" width="4.84" height="4.84" rx="1.55" ry="1.55"/><rect x="125.58" y="149.20" width="4.84" height="4.84" rx="1.55" ry="1.55"/><rect x="131.48" y="149.20" width="4.84" height="4.84" rx="1.55" ry="1.55"/><rect x="143.29" y="149.20" width="4.84" height="4.84" rx="1.55" ry="1.55"/><rect x="161.01" y="149.20" width="4.84" height="4.84" rx="1.55" ry="1.55"/><rect x="184.63" y="149.20" width="4.84" height="4.84" rx="1.55" ry="1.55"/><rect x="131.48" y="155.10" width="4.84" height="4.84" rx="1.55" ry="1.55"/><rect x="137.39" y="155.10" width="4.84" height="4.84" rx="1.55" ry="1.55"/><rect x="149.20" y="155.10" width="4.84" height="4.84" rx="1.55" ry="1.55"/><rect x="184.63" y="155.10" width="4.84" height="4.84" rx="1.55" ry="1.55"/><rect x="119.67" y="161.01" width="4.84" height="4.84" rx="1.55" ry="1.55"/><rect x="131.48" y="161.01" width="4.84" height="4.84" rx="1.55" ry="1.55"/><rect x="137.39" y="161.01" width="4.84" height="4.84" rx="1.55" ry="1.55"/><rect x="143.29" y="161.01" width="4.84" height="4.84" rx="1.55" ry="1.55"/><rect x="172.82" y="161.01" width="4.84" height="4.84" rx="1.55" ry="1.55"/><rect x="184.63" y="161.01" width="4.84" height="4.84" rx="1.55" ry="1.55"/><rect x="113.77" y="166.91" width="4.84" height="4.84" rx="1.55" ry="1.55"/><rect x="119.67" y="166.91" width="4.84" height="4.84" rx="1.55" ry="1.55"/><rect x="131.48" y="166.91" width="4.84" height="4.84" rx="1.55" ry="1.55"/><rect x="149.20" y="166.91" width="4.84" height="4.84" rx="1.55" ry="1.55"/><rect x="161.01" y="166.91" width="4.84" height="4.84" rx="1.55" ry="1.55"/><rect x="172.82" y="166.91" width="4.84" height="4.84" rx="1.55" ry="1.55"/><rect x="178.72" y="166.91" width="4.84" height="4.84" rx="1.55" ry="1.55"/><rect x="113.77" y="172.82" width="4.84" height="4.84" rx="1.55" ry="1.55"/><rect x="125.58" y="172.82" width="4.84" height="4.84" rx="1.55" ry="1.55"/><rect x="131.48" y="172.82" width="4.84" height="4.84" rx="1.55" ry="1.55"/><rect x="137.39" y="172.82" width="4.84" height="4.84" rx="1.55" ry="1.55"/><rect x="143.29" y="172.82" width="4.84" height="4.84" rx="1.55" ry="1.55"/><rect x="149.20" y="172.82" width="4.84" height="4.84" rx="1.55" ry="1.55"/><rect x="161.01" y="172.82" width="4.84" height="4.84" rx="1.55" ry="1.55"/><rect x="172.82" y="172.82" width="4.84" height="4.84" rx="1.55" ry="1.55"/><rect x="125.58" y="178.72" width="4.84" height="4.84" rx="1.55" ry="1.55"/><rect x="149.20" y="178.72" width="4.84" height="4.84" rx="1.55" ry="1.55"/><rect x="161.01" y="178.72" width="4.84" height="4.84" rx="1.55" ry="1.55"/><rect x="166.91" y="178.72" width="4.84" height="4.84" rx="1.55" ry="1.55"/><rect x="119.67" y="184.63" width="4.84" height="4.84" rx="1.55" ry="1.55"/><rect x="125.58" y="184.63" width="4.84" height="4.84" rx="1.55" ry="1.55"/><rect x="143.29" y="184.63" width="4.84" height="4.84" rx="1.55" ry="1.55"/><rect x="149.20" y="184.63" width="4.84" height="4.84" rx="1.55" ry="1.55"/><rect x="155.10" y="184.63" width="4.84" height="4.84" rx="1.55" ry="1.55"/><rect x="178.72" y="184.63" width="4.84" height="4.84" rx="1.55" ry="1.55"/><rect x="68.95" y="68.95" width="35.43" height="35.43" rx="9.45" ry="9.45" fill="none" stroke="url(#qrmod)" stroke-width="5.90"/><rect x="77.81" y="77.81" width="17.71" height="17.71" rx="5.90" ry="5.90" fill="url(#qrmod)"/><rect x="151.62" y="68.95" width="35.43" height="35.43" rx="9.45" ry="9.45" fill="none" stroke="url(#qrmod)" stroke-width="5.90"/><rect x="160.48" y="77.81" width="17.71" height="17.71" rx="5.90" ry="5.90" fill="url(#qrmod)"/><rect x="68.95" y="151.62" width="35.43" height="35.43" rx="9.45" ry="9.45" fill="none" stroke="url(#qrmod)" stroke-width="5.90"/><rect x="77.81" y="160.48" width="17.71" height="17.71" rx="5.90" ry="5.90" fill="url(#qrmod)"/></g>

  <!-- viewfinder corner brackets -->
  <path d="M 48.0 74.0 L 48.0 48.0 L 74.0 48.0" fill="none" stroke="#67E8F9" stroke-width="5" stroke-linecap="round" stroke-linejoin="round"/><path d="M 208.0 74.0 L 208.0 48.0 L 182.0 48.0" fill="none" stroke="#67E8F9" stroke-width="5" stroke-linecap="round" stroke-linejoin="round"/><path d="M 48.0 182.0 L 48.0 208.0 L 74.0 208.0" fill="none" stroke="#67E8F9" stroke-width="5" stroke-linecap="round" stroke-linejoin="round"/><path d="M 208.0 182.0 L 208.0 208.0 L 182.0 208.0" fill="none" stroke="#67E8F9" stroke-width="5" stroke-linecap="round" stroke-linejoin="round"/>

  <!-- top-center console tick -->
  <path d="M128 12 v10" stroke="#67E8F9" stroke-width="3" stroke-linecap="round" opacity="0.9"/>
</svg>